# xmcd
#
# Track frame offsets: 
#        150
#        8977
#        22687
#        36358
#        59438
#        74918
#        89046
#        102873
#        115551
#        131547
#        143206
#
# Disc length: 2260 seconds
#
# Revision: 5
# Processed by: cddbd v1.5.2PL0 Copyright (c) Steve Scherf et al.
# Submitted via: ExactAudioCopy v1.0b3
#
DISCID=9808d20b
DTITLE=Klaus Voormann - A sideman's journey
DYEAR=2009
DGENRE=Blues
TTITLE0=Klaus Voormann - Paul McCartney - I'm in love again 
TTITLE1=Klaus Voormann - Don Preston - Blue suede shoes
TTITLE2=Klaus Voormann - Cat Stevens - All things must pass
TTITLE3=Klaus Voormann - John Fohl - Have you seen my baby?
TTITLE4=Klaus Voormann - Bonnie Bramlett - My sweet Lord
TTITLE5=Klaus Voormann - Manfred Mann - Mighty Quinn
TTITLE6=Klaus Voormann - Don Preston - Short people
TTITLE7=Klaus Voormann - Cat Stevens - The day the world gets 'round
TTITLE8=Klaus Voormann - Bonnie Bramlett - So far
TTITLE9=Klaus Voormann - Max Buskohl - You're 16
TTITLE10=Klaus Voormann - Dr. John - Such a night
EXTD=YEAR: 2009
EXTT0=
EXTT1=
EXTT2=
EXTT3=
EXTT4=
EXTT5=
EXTT6=
EXTT7=
EXTT8=
EXTT9=
EXTT10=
PLAYORDER=
